<svg width="512" height="512" xmlns="http://www.w3.org/2000/svg">

 <g>
  <title>background</title>
  <rect fill="none" id="canvas_background" height="402" width="582" y="-1" x="-1"/>
 </g>
 <g>
  <title>Layer 1</title>
  <path id="svg_1" fill="#757575" d="m352.938,337.375887c0,0.6 0.301,1.196 0.301,1.796c0,17.341 -43.815,31.693 -98.138,31.693c-54.021,0 -97.837,-14.353 -97.837,-31.693c0,-0.6 0,-1.196 0.297,-1.796c-0.297,-0.597 -0.297,-1.196 -0.297,-1.492c0,-17.642 43.816,-31.993 97.837,-31.993c54.322,0 98.138,14.352 98.138,31.993c-0.001,0.296 -0.301,0.896 -0.301,1.492z"/>
  <path id="svg_2" fill="#696969" d="m352.938,337.375887c0,0.6 0.301,1.196 0.301,1.796c0,17.341 -43.815,31.693 -98.138,31.693c-2.104,0 -4.502,0 -6.904,0l0,-66.675c2.401,-0.3 4.799,-0.3 6.904,-0.3c54.322,0 98.138,14.352 98.138,31.993c-0.001,0.297 -0.301,0.897 -0.301,1.493z"/>
  <path id="svg_3" fill="#757575" d="m248.197,304.190887c2.401,-0.3 4.799,-0.3 6.904,-0.3c52.519,0 95.138,13.456 97.837,30.196c-2.699,16.744 -45.318,29.9 -97.837,29.9c-2.104,0 -4.502,0 -6.904,0l0,-59.796z"/>
  <path id="svg_4" fill="#8D8D8D" d="m255.101,300.601887c54.033,0 97.837,14.189 97.837,31.692c0,17.504 -43.804,31.693 -97.837,31.693c-54.038,0 -97.837,-14.189 -97.837,-31.693c0,-17.503 43.799,-31.692 97.837,-31.692z"/>
  <path id="svg_5" fill="#7F7F7F" d="m255.101,300.301887c54.322,0 98.138,14.352 98.138,31.992c0,17.642 -43.815,31.693 -98.138,31.693c-2.104,0 -4.502,0 -6.904,0l0,-63.386c2.401,0.001 4.799,-0.299 6.904,-0.299z"/>
  <polygon id="svg_6" points="219.68600463867188,239.60490036010742 290.81201171875,239.60490036010742 290.81201171875,324.2198905944824 219.68600463867188,324.2198905944824 " fill="#CCCCCC"/>
  <polygon id="svg_7" points="290.81201171875,285.0528984069824 290.81201171875,324.2198905944824 248.19700622558594,324.2198905944824 248.19700622558594,285.0528984069824 " fill="#B8B8B8"/>
  <polygon id="svg_8" points="225.08799743652344,244.98688888549805 286.9119873046875,244.98688888549805 286.9119873046875,318.8388786315918 225.08799743652344,318.8388786315918 " fill="#B8B8B8"/>
  <polygon id="svg_9" points="286.9119873046875,285.0528984069824 286.9119873046875,318.8388786315918 248.19700622558594,318.8388786315918 248.19700622558594,285.0528984069824 " fill="#A6A6A6"/>
  <path id="svg_10" fill="#A9ABAE" d="m77.732,41.371887l356.536,0c3.302,0 6.306,2.691 6.306,6.28l0,231.125c0,3.289 -3.004,6.277 -6.306,6.277l-356.536,0c-3.305,0 -6.301,-2.988 -6.301,-6.277l0,-231.126c0,-3.589 2.996,-6.279 6.301,-6.279z"/>
  <path id="svg_11" fill="#669999" d="m91.837,50.639887l334.33,0c2.699,0 4.8,2.393 4.8,5.083l0,209.297c0,2.989 -2.101,5.086 -4.8,5.086l-340.334,0c-2.703,0 -4.803,-2.097 -4.803,-5.086l0,-203.317c-0.001,-5.979 4.803,-11.063 10.807,-11.063z"/>
  <path id="svg_12" fill="#CCCCCC" d="m256,271.597887c2.816,0 5.101,2.274 5.101,5.085c0,2.807 -2.284,5.082 -5.101,5.082c-2.817,0 -5.104,-2.275 -5.104,-5.082c0,-2.81 2.287,-5.085 5.104,-5.085z"/>
  <path id="svg_13" fill="#B3B3B3" d="m256,273.093887c1.99,0 3.603,1.606 3.603,3.589c0,1.979 -1.612,3.585 -3.603,3.585c-1.986,0 -3.603,-1.605 -3.603,-3.585c0,-1.982 1.617,-3.589 3.603,-3.589z"/>
  <path id="svg_14" fill="#336666" d="m102.042,57.517887l313.619,0c2.703,0 4.804,2.093 4.804,4.784l0,196.441c0,2.688 -2.101,4.785 -4.804,4.785l-319.326,0c-2.699,0 -4.799,-2.097 -4.799,-4.785l0,-190.76c0,-5.98 4.799,-10.465 10.506,-10.465z"/>
  <rect id="svg_15" y="64.393887" x="123.046" width="262.904" height="192.256" fill="#E6E6E6"/>
  <rect id="svg_16" y="64.393887" x="96.937" width="17.96" height="188.837" fill="#66FFCC"/>
  <rect id="svg_17" y="63.795887" x="392.553" width="17.959" height="189.309" fill="#E6E6E6"/>
  <path id="svg_18" fill="#33CC99" d="m394.954,66.786887l5.703,0l0,5.682l-5.703,0l0,-5.682zm8.105,156.075l5.703,0l0,5.679l-5.703,0l0,-5.679zm-8.105,0l5.703,0l0,5.679l-5.703,0l0,-5.679zm8.105,-7.474l5.703,0l0,5.68l-5.703,0l0,-5.68zm-8.105,0l5.703,0l0,5.68l-5.703,0l0,-5.68zm8.105,-7.476l5.703,0l0,5.682l-5.703,0l0,-5.682zm-8.105,0l5.703,0l0,5.682l-5.703,0l0,-5.682zm8.105,-7.474l5.703,0l0,5.682l-5.703,0l0,-5.682zm-8.105,0l5.703,0l0,5.682l-5.703,0l0,-5.682zm8.105,-7.476l5.703,0l0,5.682l-5.703,0l0,-5.682zm-8.105,0l5.703,0l0,5.682l-5.703,0l0,-5.682zm8.105,-7.474l5.703,0l0,5.98l-5.703,0l0,-5.98zm-8.105,0l5.703,0l0,5.98l-5.703,0l0,-5.98zm8.105,-7.176l5.703,0l0,5.682l-5.703,0l0,-5.682zm-8.105,0l5.703,0l0,5.682l-5.703,0l0,-5.682zm8.105,-7.474l5.703,0l0,5.68l-5.703,0l0,-5.68zm-8.105,0l5.703,0l0,5.68l-5.703,0l0,-5.68zm8.105,-7.476l5.703,0l0,5.682l-5.703,0l0,-5.682zm-8.105,0l5.703,0l0,5.682l-5.703,0l0,-5.682zm8.105,-7.474l5.703,0l0,5.682l-5.703,0l0,-5.682zm-8.105,0l5.703,0l0,5.682l-5.703,0l0,-5.682zm8.105,-7.476l5.703,0l0,5.682l-5.703,0l0,-5.682zm-8.105,0l5.703,0l0,5.682l-5.703,0l0,-5.682zm8.105,-7.475l5.703,0l0,5.979l-5.703,0l0,-5.979zm-8.105,0l5.703,0l0,5.979l-5.703,0l0,-5.979zm8.105,-7.176l5.703,0l0,5.682l-5.703,0l0,-5.682zm-8.105,0l5.703,0l0,5.682l-5.703,0l0,-5.682zm8.105,-7.473l5.703,0l0,5.679l-5.703,0l0,-5.679zm-8.105,0l5.703,0l0,5.679l-5.703,0l0,-5.679zm8.105,-7.477l5.703,0l0,5.682l-5.703,0l0,-5.682zm-8.105,0l5.703,0l0,5.682l-5.703,0l0,-5.682zm8.105,-7.474l5.703,0l0,5.682l-5.703,0l0,-5.682zm-8.105,0l5.703,0l0,5.682l-5.703,0l0,-5.682zm8.105,-7.474l5.703,0l0,5.679l-5.703,0l0,-5.679zm-8.105,0l5.703,0l0,5.679l-5.703,0l0,-5.679zm8.105,-7.476l5.703,0l0,5.979l-5.703,0l0,-5.979zm-8.105,0l5.703,0l0,5.979l-5.703,0l0,-5.979zm8.105,-7.176l5.703,0l0,5.682l-5.703,0l0,-5.682zm-8.105,0l5.703,0l0,5.682l-5.703,0l0,-5.682zm8.105,-7.474l5.703,0l0,5.682l-5.703,0l0,-5.682zm-8.105,0l5.703,0l0,5.682l-5.703,0l0,-5.682zm8.105,-7.476l5.703,0l0,5.682l-5.703,0l0,-5.682zm-8.105,0l5.703,0l0,5.682l-5.703,0l0,-5.682zm8.105,-7.474l5.703,0l0,5.682l-5.703,0l0,-5.682z"/>
  <polygon id="svg_19" points="254.7989959716797,110.1408805847168 276.7070007324219,122.6978874206543 298.3179931640625,135.25588607788086 298.3179931640625,160.3728904724121 298.3179931640625,185.4878807067871 276.7070007324219,198.0448875427246 254.7989959716797,210.60288619995117 233.18800354003906,198.0448875427246 211.27999877929688,185.4878807067871 211.27999877929688,160.3728904724121 211.27999877929688,135.25588607788086 233.18800354003906,122.6978874206543 " fill="#33CC99"/>
  <rect id="svg_20" y="182.496887" x="207.381" width="5.821" height="5.83" fill="#CC3300"/>
  <polygon id="svg_21" points="210.08299255371094,183.99389266967773 296.2179870605469,183.99389266967773 296.2179870605469,186.68387985229492 210.08299255371094,186.68387985229492 " fill="#CC3300"/>
  <rect id="svg_22" y="182.496887" x="294.716" width="5.82" height="5.83" fill="#CC3300"/>
  <polygon id="svg_23" points="211.58200073242188,183.39489364624023 217.28500366210938,188.47788619995117 214.58599853515625,202.83088302612305 205.88299560546875,202.83088302612305 202.87899780273438,188.47788619995117 208.87899780273438,183.39489364624023 208.87899780273438,195.9528923034668 211.58200073242188,195.9528923034668 " fill="#CCCCCC"/>
  <path id="svg_24" fill="#B3B3B3" d="m205.582,202.830887l9.383,0c0.997,0 1.803,1.606 1.803,3.587l0,0c0,1.983 -0.806,3.589 -1.803,3.589l-9.383,0c-0.993,0 -1.799,-1.606 -1.799,-3.589l0,0c-0.001,-1.982 0.805,-3.587 1.799,-3.587z"/>
  <rect id="svg_25" y="182.496887" x="208.879" width="2.532" height="13.427" fill="#4D4D4D"/>
  <path id="svg_26" fill="#4D4D4D" d="m210.083,193.261887c1.49,0 2.699,1.204 2.699,2.69s-1.209,2.691 -2.699,2.691c-1.494,0 -2.703,-1.205 -2.703,-2.691s1.21,-2.69 2.703,-2.69z"/>
  <path id="svg_27" fill="#CCCCCC" d="m254.502,87.716887l0,0l-0.603,0l-0.301,0l-0.301,0c-0.899,0 -1.498,-0.598 -1.498,-1.196c0,-0.896 0.598,-1.495 1.197,-1.495l0.602,0l0.301,0l0.603,0l0,0l0.599,0l0.297,0l0.602,0l0.301,0l0.598,0l0.302,0c0.899,0 1.2,0.598 1.2,1.495c0,0.598 -0.603,1.196 -1.2,1.196l-0.302,0l-0.598,0l-0.301,0l-0.603,0l-0.598,0l-0.297,0zm-9.606,-2.093c0.603,0 1.498,0.598 1.498,1.196c0,0.896 -0.297,1.495 -1.197,1.495l0,0l-0.301,0l-0.603,0l-0.297,0.298l-0.598,0l-0.301,0l-0.603,0c-0.598,0.3 -1.197,-0.298 -1.498,-0.896c0,-0.896 0.599,-1.495 1.197,-1.795l0.301,0l0.603,0l0.301,0l0.598,0l0.297,-0.298l0.603,0l0,0zm-10.804,2.093c0.9,0 1.498,0.298 1.799,1.196c0,0.598 -0.301,1.196 -0.899,1.494l-0.297,0l-0.603,0.3l-0.301,0l-0.603,0.298l-0.297,0l-0.301,0.298l-0.297,0c-0.603,0 -1.502,-0.298 -1.502,-0.896c-0.301,-0.896 0,-1.494 0.598,-1.794l0.301,0l0.301,-0.298l0.598,0l0.301,0l0.599,-0.3l0.301,0l0.302,-0.298zm-10.205,3.886c0.598,-0.3 1.502,0 1.803,0.598c0.297,0.598 0,1.495 -0.904,1.795l-0.301,0.298l-0.297,0l-0.301,0.298l-0.599,0l-0.301,0.3l-0.301,0.298l-0.301,0c-0.598,0.3 -1.196,0 -1.799,-0.599c-0.301,-0.596 0,-1.494 0.603,-1.792l0.301,0l0.297,-0.3l0.297,-0.298l0.602,0l0.301,-0.3l0.603,-0.298l0.297,0zm-9.602,5.084c0.598,-0.3 1.197,0 1.799,0.598c0.301,0.596 0.301,1.495 -0.602,1.792l-0.297,0l-0.301,0.3l-0.297,0.298l-0.301,0.3l-0.301,0.298l-0.603,0.3l0,0c-0.599,0.298 -1.498,0.298 -1.799,-0.3c-0.598,-0.598 -0.301,-1.494 0.301,-2.092l0,0l0.603,-0.3l0.297,-0.298l0.301,0l0.297,-0.298l0.603,-0.3l0.3,-0.298zm-9.005,6.578c0.603,-0.3 1.498,-0.3 2.101,0.298c0.301,0.3 0.301,1.196 -0.301,1.794l0,0l-0.599,0.298l-0.301,0.3l-0.297,0.298l-0.301,0.3l-0.301,0.298l0,0.3c-0.603,0.596 -1.498,0.298 -2.101,0c-0.602,-0.598 -0.301,-1.496 0,-2.094l0.301,0l0.301,-0.298l0.297,-0.3l0.301,-0.298l0.297,-0.298l0.603,-0.3l0,-0.298zm-7.803,7.772c0.598,-0.596 1.502,-0.596 2.101,0c0.598,0.3 0.598,1.196 0,1.794l0,0l-0.297,0.3l-0.301,0.298l-0.301,0.598l-0.301,0.298l-0.301,0.3l-0.297,0.298c-0.301,0.598 -1.201,0.598 -1.803,0c-0.599,-0.298 -0.599,-1.194 -0.301,-1.792l0.301,-0.3l0.301,-0.298l0.301,-0.3l0.301,-0.298l0.301,-0.598l0.296,-0.3l0,0zm-6.602,8.672c0.598,-0.598 1.201,-0.598 2.101,-0.3c0.598,0.3 0.598,1.196 0.301,1.794l-0.301,0.598l-0.297,0.298l0,0.3l-0.301,0.298l-0.301,0.598l-0.301,0.3l0,0c-0.301,0.598 -1.197,0.896 -1.799,0.298c-0.603,-0.298 -0.904,-1.196 -0.301,-1.794l0,0l0,-0.298l0.301,-0.3l0.301,-0.596l0.301,-0.3l0.297,-0.298l0,-0.598l-0.001,0zm-5.101,9.867c0.301,-0.598 1.197,-1.196 1.799,-0.898c0.603,0.598 0.899,1.196 0.603,1.794l0,0.598l-0.301,0.3l-0.301,0.298l0,0.598l-0.301,0.298l0,0.598l0,0c-0.301,0.598 -1.197,0.898 -1.799,0.598c-0.603,-0.298 -1.201,-0.896 -0.903,-1.794l0,0l0.301,-0.298l0.301,-0.598l0,-0.298l0.301,-0.598l0,-0.3l0.3,-0.298zm-3.904,10.165c0.301,-0.598 1.201,-1.196 1.804,-0.896c0.598,0.298 1.196,0.896 0.896,1.794l0,0l0,0.298l-0.297,0.598l0,0.298l-0.297,0.598l0,0.3l0,0.298c-0.301,0.898 -0.903,1.196 -1.803,1.196c-0.598,-0.298 -0.899,-0.896 -0.899,-1.795l0,-0.298l0.301,-0.598l0,-0.298l0.297,-0.599l0,-0.3l0,-0.596l-0.002,0zm-2.1,10.765c0,-0.598 0.899,-1.197 1.502,-1.197c0.899,0.298 1.197,0.896 1.197,1.495l0,0.3l0,0.596l-0.297,0.598l0,0.3l0,0.598l0,0.298l0,0c0,0.898 -0.598,1.494 -1.502,1.196c-0.598,0 -1.197,-0.598 -1.197,-1.495l0,0l0,-0.3l0,-0.598l0.297,-0.298l0,-0.598l0,-0.598l0,-0.297zm-0.599,11.063c0,-0.898 0.599,-1.497 1.197,-1.497c0.904,0 1.502,0.598 1.502,1.497l0,0.298l0,0.598l0,0.298l0,0.598l0,0.3l0,0.598c0,0.598 -0.598,1.197 -1.201,1.197c-0.899,0.298 -1.498,-0.3 -1.498,-1.197l0,-0.3l0,-0.598l0,-0.298l0,-0.598l0,-0.598l0,-0.298zm0.9,11.061c0,-0.896 0.297,-1.495 1.201,-1.792c0.598,0 1.197,0.598 1.498,1.196l0,0.596l0,0.3l0.301,0.599l0,0.298l0,0.598l0,0.3c0.301,0.598 -0.301,1.494 -0.9,1.494c-0.899,0.298 -1.502,-0.3 -1.502,-0.896l-0.301,-0.598l0,-0.3l0,-0.598l0,-0.298l-0.297,-0.599l0,-0.3zm2.398,10.465c0,-0.598 0.301,-1.495 0.904,-1.495c0.899,-0.298 1.498,0 1.799,0.896l0,0l0.301,0.598l0,0.3l0.301,0.598l0,0.298l0.301,0.3l0,0.298c0.297,0.598 -0.301,1.495 -0.904,1.794c-0.602,0.298 -1.498,-0.3 -1.799,-0.898l0,-0.298l0,-0.298l-0.301,-0.598l0,-0.3l-0.301,-0.298l0,-0.598l-0.301,-0.299zm4.205,10.167c-0.301,-0.598 0,-1.196 0.598,-1.794c0.603,-0.298 1.502,0 1.799,0.896l0,0l0.301,0.598l0.301,0.3l0,0.298l0.301,0.598l0.301,0.3l0,0c0.301,0.896 0,1.494 -0.602,2.092c-0.603,0.298 -1.498,0 -1.799,-0.598l0,-0.298l-0.301,-0.3l-0.301,-0.598l0,-0.298l-0.301,-0.3l-0.297,-0.598l0,-0.298zm5.401,9.569c-0.301,-0.598 -0.301,-1.496 0.301,-1.794c0.599,-0.3 1.498,-0.3 2.101,0.298l0,0.3l0.301,0.298l0.297,0.3l0.301,0.298l0,0.598l0.297,0.298l0.301,0c0.301,0.598 0.301,1.497 -0.301,2.095c-0.599,0.298 -1.498,0.298 -2.101,-0.3l0,-0.298l-0.297,-0.3l-0.301,-0.298l-0.297,-0.598l-0.301,-0.3l0,-0.298l-0.301,-0.299zm6.904,8.67c-0.603,-0.598 -0.603,-1.496 0,-1.794c0.599,-0.598 1.498,-0.598 2.101,0l0,0l0.301,0.298l0.297,0.3l0.301,0.298l0.297,0.3l0.301,0.598l0.301,0c0.301,0.598 0.301,1.495 0,2.093c-0.603,0.598 -1.498,0.598 -2.101,0l-0.301,-0.3l-0.301,-0.298l-0.297,-0.298l-0.301,-0.3l-0.297,-0.598l-0.301,-0.299l0,0zm8.101,7.474c-0.599,-0.298 -0.9,-1.196 -0.301,-1.794c0.301,-0.598 1.205,-0.598 1.803,-0.298l0.297,0.298l0.301,0.3l0.301,0.298l0.603,0.3l0.301,0.298l0.297,0.3l0,0c0.598,0.298 0.598,1.194 0.301,1.792c-0.301,0.598 -1.201,0.598 -1.803,0.3l0,0l-0.599,-0.3l-0.301,-0.298l-0.297,-0.3l-0.301,-0.298l-0.301,-0.298l-0.301,-0.3zm8.702,6.28c-0.598,-0.3 -0.598,-1.196 -0.301,-1.794c0.301,-0.598 1.205,-0.896 1.803,-0.3l0.301,0l0.297,0.3l0.301,0.298l0.603,0l0.301,0.3l0.297,0.298l0.301,0c0.599,0.3 0.9,1.196 0.297,1.794c-0.297,0.598 -0.896,0.898 -1.799,0.598l0,0l-0.301,-0.3l-0.598,-0.298l-0.297,-0.298l-0.301,0l-0.603,-0.3l-0.301,-0.298zm9.908,5.083c-0.603,-0.3 -0.904,-1.196 -0.603,-1.797c0.301,-0.596 0.899,-0.896 1.799,-0.596l0,0l0.603,0l0.301,0.3l0.599,0.296l0.301,0l0.297,0.301l0.301,0c0.603,0.3 0.904,0.896 0.603,1.792c0,0.601 -0.904,0.9 -1.502,0.601l-0.297,0l-0.301,0l-0.602,-0.3l-0.301,-0.301l-0.599,0l-0.301,-0.296l-0.298,0zm10.502,3.289c-0.899,0 -1.201,-0.896 -0.899,-1.496c0,-0.597 0.899,-1.196 1.502,-0.896l0.297,0l0.598,0l0.301,0.3l0.603,0l0.301,0l0.598,0.296c0.599,0 1.201,0.9 0.9,1.497c0,0.596 -0.9,1.196 -1.498,0.896l-0.603,0l-0.301,0l-0.599,-0.3l-0.301,0l-0.599,0l-0.3,-0.297zm10.804,2.093c-0.899,-0.301 -1.201,-0.896 -1.201,-1.497c0,-0.896 0.599,-1.492 1.502,-1.196l0.301,0l0.301,0l0.599,0l0.297,0l0.603,0l0.301,0l0,0c0.899,0.301 1.498,0.896 1.498,1.497c0,0.896 -0.9,1.496 -1.498,1.196l0,0l-0.603,0l-0.301,0l-0.598,0l-0.599,0l-0.301,0l-0.301,0zm10.803,0.3c-0.598,0 -1.2,-0.601 -1.2,-1.496c0,-0.601 0.301,-1.196 1.2,-1.196l0.302,0l0.603,-0.301l0.296,0l0.603,0l0.599,0l0.301,0c0.599,0 1.201,0.601 1.502,1.196c0,0.896 -0.603,1.497 -1.502,1.497l-0.301,0l-0.302,0l-0.599,0l-0.598,0l-0.302,0.3l-0.602,0zm11.105,-1.496c-0.9,0.3 -1.498,-0.301 -1.8,-0.896c0,-0.896 0.599,-1.496 1.201,-1.797l0.301,0l0.599,0l0.301,0l0.599,-0.296l0.302,0l0.598,0c0.603,-0.3 1.201,0.296 1.502,0.896c0.302,0.596 -0.301,1.492 -0.899,1.492l-0.603,0.3l-0.297,0l-0.603,0l-0.301,0.301l-0.599,0l-0.301,0zm10.506,-2.693c-0.603,0.301 -1.502,-0.296 -1.804,-0.896c-0.297,-0.597 0.302,-1.493 0.904,-1.793l0,0l0.598,0l0.302,-0.3l0.599,0l0.301,-0.301l0.302,0l0.297,-0.296c0.903,-0.3 1.502,0 1.803,0.896c0.302,0.596 0,1.492 -0.603,1.793l-0.297,0l-0.603,0.3l-0.301,0l-0.599,0.3l-0.301,0l-0.598,0.297l0,0zm9.903,-4.485c-0.603,0.3 -1.2,0 -1.803,-0.596c-0.298,-0.598 0,-1.495 0.603,-1.794l0.301,0l0.297,-0.298l0.302,0l0.603,-0.3l0.297,-0.298l0.301,-0.3l0.302,0c0.599,-0.298 1.498,-0.298 1.799,0.598c0.302,0.598 0.302,1.196 -0.598,1.794l0,0l-0.603,0.298l-0.302,0.3l-0.297,0l-0.603,0.3l-0.297,0.296l-0.302,0zm9.603,-5.68c-0.598,0.3 -1.502,0.3 -2.101,-0.298c-0.301,-0.598 -0.301,-1.496 0.302,-2.092l0,0l0.599,-0.3l0.301,0l0.302,-0.298l0.297,-0.3l0.301,-0.298l0.302,-0.3c0.599,-0.298 1.498,-0.298 2.101,0.3c0.301,0.598 0.301,1.494 -0.302,1.792l-0.301,0.3l-0.298,0.298l-0.602,0.3l-0.298,0.298l-0.301,0.3l-0.302,0.298l0,0zm8.105,-7.176c-0.301,0.599 -1.2,0.599 -1.803,0c-0.599,-0.598 -0.599,-1.494 0,-1.792l0.301,-0.3l0.302,-0.298l0.301,-0.3l0.297,-0.298l0.302,-0.598l0.301,-0.3l0,0c0.599,-0.598 1.498,-0.598 2.101,0c0.302,0.598 0.599,1.496 0,1.794l0,0.3l-0.301,0.298l-0.302,0.298l-0.297,0.3l-0.603,0.298l-0.301,0.3l-0.298,0.298zm7.502,-8.37c-0.599,0.596 -1.503,0.896 -2.101,0.298c-0.603,-0.298 -0.603,-1.197 -0.302,-1.795l0.302,-0.298l0.301,-0.3l0.297,-0.298l0.302,-0.3l0.301,-0.298l0,-0.598l0.302,0c0.297,-0.598 1.196,-0.896 1.799,-0.298c0.599,0.298 0.599,1.194 0.302,1.792l0,0.3l-0.302,0.298l-0.301,0.3l-0.302,0.298l-0.297,0.598l-0.301,0.301l0,0zm6.004,-8.971c-0.603,0.599 -1.201,0.896 -1.804,0.298c-0.899,-0.298 -0.899,-0.896 -0.599,-1.792l0,0l0.298,-0.598l0,-0.3l0.301,-0.298l0.302,-0.3l0.301,-0.598l0,0c0.297,-0.896 1.201,-1.196 1.8,-0.598c0.598,0.3 0.899,0.898 0.598,1.794l0,0l-0.297,0.598l-0.301,0.3l-0.302,0.298l0,0.598l-0.297,0.298l0,0.3zm4.498,-10.167c-0.298,0.898 -0.899,1.196 -1.8,0.898c-0.598,-0.3 -0.899,-0.898 -0.598,-1.794l0,0l0,-0.598l0.297,-0.298l0,-0.598l0.301,-0.3l0,-0.298l0.302,-0.3c0,-0.896 0.899,-1.196 1.498,-0.896c0.903,0.298 1.2,0.896 0.903,1.794l0,0l-0.301,0.598l0,0.298l-0.302,0.598l0,0.298l-0.3,0.598l0,0zm3.004,-10.464c0,0.898 -0.899,1.196 -1.502,1.196c-0.599,-0.298 -1.201,-0.896 -0.899,-1.794l0,-0.298l0,-0.298l0,-0.598l0.301,-0.3l0,-0.598l0,-0.298l0,0c0.297,-0.898 0.899,-1.495 1.498,-1.197c0.899,0 1.502,0.896 1.201,1.495l0,0l0,0.598l0,0.3l-0.302,0.598l0,0.298l0,0.598l-0.297,0.298zm1.498,-10.764c0,0.598 -0.599,1.196 -1.201,1.196c-0.899,0 -1.498,-0.598 -1.498,-1.494l0.302,-0.3l0,-0.298l0,-0.598l0,-0.598l0,-0.3l0,-0.598l0,0c0,-0.596 0.599,-1.194 1.196,-1.194c0.904,0 1.502,0.598 1.502,1.494l0,0l0,0.298l0,0.598l0,0.3l0,0.598l-0.301,0.599l0,0.297zm0,-11.063c0,0.598 -0.297,1.494 -1.201,1.494c-0.598,0 -1.196,-0.598 -1.498,-1.196l0,-0.596l0,-0.3l0,-0.598l0,-0.298l0,-0.598l-0.301,-0.3c0,-0.896 0.603,-1.495 1.201,-1.495c0.899,0 1.502,0.3 1.502,1.196l0.297,0.298l0,0.598l0,0.3l0,0.598l0,0.298l0,0.599zm-1.498,-10.763c0,0.598 -0.301,1.194 -1.201,1.495c-0.603,0.298 -1.2,-0.3 -1.502,-0.896l0,-0.3l-0.301,-0.598l0,-0.298l0,-0.598l-0.298,-0.3l0,-0.598l0,0c-0.301,-0.596 0.298,-1.494 0.9,-1.494c0.899,-0.298 1.502,0 1.799,0.898l0,0l0,0.298l0,0.598l0.302,0.298l0,0.599l0.301,0.598l0,0.298zm-3.301,-10.765c0.298,0.898 0,1.497 -0.602,1.795c-0.9,0.298 -1.498,0 -1.8,-0.598l0,0l-0.301,-0.599l0,-0.298l-0.302,-0.3l0,-0.598l-0.297,-0.298l-0.301,-0.3c-0.302,-0.896 0.301,-1.494 0.899,-1.792c0.603,-0.3 1.502,0 1.799,0.598l0,0.298l0.302,0.598l0,0.298l0.301,0.598l0.301,0.3l0,0.298l0.001,0zm-4.502,-9.867c0.302,0.598 0,1.497 -0.603,1.794c-0.598,0.598 -1.498,0.298 -1.799,-0.298l0,0l-0.301,-0.598l-0.302,-0.3l-0.297,-0.298l0,-0.3l-0.302,-0.598l-0.301,-0.298c-0.297,-0.598 0,-1.495 0.603,-1.794c0.599,-0.298 1.498,-0.298 1.799,0.3l0.302,0.596l0,0.3l0.301,0.298l0.297,0.598l0.302,0.3l0,0.298l0.301,0zm-6.301,-8.97c0.599,0.598 0.297,1.196 -0.302,1.794c-0.301,0.598 -1.2,0.3 -1.803,-0.298l-0.297,-0.3l-0.302,-0.298l0,-0.3l-0.301,-0.298l-0.302,-0.3l-0.297,-0.298l0,-0.298c-0.603,-0.598 -0.603,-1.196 0,-1.794c0.599,-0.598 1.498,-0.3 1.799,0.298l0.302,0l0.301,0.3l0.297,0.298l0.302,0.3l0.301,0.298l0,0.598l0.302,0.298zm-7.205,-8.37c0.599,0.598 0.599,1.495 0,2.093s-1.502,0.598 -1.799,0l-0.302,-0.3l-0.301,-0.298l-0.302,-0.298l-0.297,-0.3l-0.302,-0.298l-0.301,-0.3l-0.297,0c-0.603,-0.598 -0.603,-1.495 0,-1.794c0.297,-0.596 1.196,-0.896 1.799,-0.298l0.302,0.298l0.297,0.3l0.301,0.298l0.302,0.3l0.301,0.298l0.297,0.3l0.302,0l0,-0.001zm-8.402,-6.878c0.598,0.3 0.598,1.196 0.297,1.794c-0.599,0.598 -1.498,0.896 -2.101,0.298l0,0l-0.297,-0.298l-0.302,-0.298l-0.603,0l-0.297,-0.3l-0.301,-0.298l-0.302,-0.3c-0.599,-0.298 -0.599,-1.196 -0.301,-1.794c0.301,-0.596 1.2,-0.896 1.803,-0.298l0.302,0l0.297,0.298l0.603,0.3l0.297,0.298l0.302,0.3l0.301,0.298l0.302,0zm-9.607,-5.68c0.904,0.298 1.201,1.194 0.603,1.792c-0.301,0.598 -0.899,0.898 -1.803,0.598l0,0l-0.298,-0.298l-0.301,-0.3l-0.603,0l-0.297,-0.298l-0.302,-0.3l-0.598,0c-0.603,-0.298 -0.904,-1.194 -0.603,-1.792c0.301,-0.598 1.2,-0.898 1.799,-0.598l0.302,0l0.602,0.298l0.298,0.3l0.603,0l0.301,0.298l0.297,0.3l0,0zm-9.903,-4.485c0.603,0.298 0.899,1.196 0.899,1.794c-0.297,0.896 -1.196,1.194 -1.799,0.896l0,0l-0.599,-0.3l-0.301,0l-0.599,0l-0.302,-0.298l-0.603,0l0,-0.298c-0.899,0 -1.2,-0.898 -1.2,-1.497c0.301,-0.896 1.2,-1.196 1.803,-0.896l0.302,0l0.599,0l0.301,0.298l0.599,0l0.301,0.3l0.302,0l0.297,0l0,0.001zm-10.804,-2.691c0.9,0.298 1.201,0.896 1.201,1.495c0,0.896 -0.899,1.494 -1.502,1.196l-0.297,0l-0.603,0l-0.302,-0.3l-0.599,0l-0.301,0l-0.599,0l0,0c-0.603,-0.298 -1.2,-0.896 -1.2,-1.494c0.301,-0.896 0.899,-1.495 1.502,-1.197l0.297,0l0.301,0l0.599,0l0.302,0.3l0.603,0l0.297,0l0.301,0z"/>
  <path id="svg_28" fill="#BDC6CB" d="m387.753,331.097887c4.8,2.394 8.101,7.475 8.101,13.156l0,90.297c0,8.37 -6.603,14.948 -14.703,14.948l-150.36,0c-4.205,0 -7.804,-1.492 -10.506,-4.186c2.1,0.896 4.201,1.497 6.603,1.497l150.36,0c8.104,0 15.004,-6.578 15.004,-14.952l0,-90.293c-0.001,-3.889 -1.8,-7.774 -4.499,-10.467z"/>
  <path id="svg_29" fill="#DDE8EE" d="m226.887,326.913887l150.36,0c8.104,0 15.004,6.578 15.004,14.652l0,90.293c0,8.374 -6.899,14.952 -15.004,14.952l-150.36,0c-8.101,0 -15.004,-6.578 -15.004,-14.952l0,-90.293c0,-8.074 6.904,-14.652 15.004,-14.652z"/>
  <path id="svg_30" fill="#869292" d="m216.083,442.025887c-0.301,0 -0.301,-0.301 -0.301,-0.301l35.716,0c-4.201,-1.192 -7.502,-5.381 -7.502,-9.866l0,-90.293c0,-4.786 3.301,-8.675 7.502,-10.167l-35.415,0l0,0l0,0l0,0l0,0l0,0l0,0l0,0l0,0l0,0l0,0l0.301,0l0,0l0,0l0,0l0,-0.301l0,0l0,0l0,0l38.117,0l12,0l110.745,0c5.703,0 10.506,4.786 10.506,10.468l0,90.293c0,5.682 -4.803,10.167 -10.506,10.167l-110.744,0l-12,0l-38.419,0z"/>
  <path id="svg_31" fill="#DDE8EE" d="m258.401,336.479887l114.344,0c5.702,0 10.205,4.485 10.205,9.867l0,80.43c0,5.682 -4.503,10.167 -10.205,10.167l-114.344,0c-5.703,0 -10.205,-4.485 -10.205,-10.167l0,-80.43c0.001,-5.382 4.503,-9.867 10.205,-9.867z"/>
  <path id="svg_32" fill="#5F5F5F" d="m308.82,392.094887c-0.599,0 -0.899,-0.3 -1.201,-0.6c-0.301,-0.301 -0.301,-0.597 -0.301,-0.896c0,-0.601 0.301,-0.896 1.2,-1.196c0.603,-0.3 1.804,-0.597 2.703,-0.896c1.201,-0.3 2.101,-0.6 3,-0.6c1.201,-0.297 1.804,-0.597 2.401,-0.597c0,-0.6 0,-1.792 0,-3.289c0,-1.496 0.302,-3.289 0.302,-5.381c0.297,-1.797 0.297,-3.59 0.599,-5.682c0.301,-2.093 0.899,-3.89 1.2,-5.682c0.603,-1.793 1.201,-2.989 1.804,-4.186c0.599,-1.196 1.498,-1.496 2.397,-1.496c0.603,0 1.201,0.3 1.803,1.196c0.599,0.896 1.201,1.796 1.8,3.289c0.301,1.196 0.603,2.692 0.899,4.485c0.302,1.496 0.603,3.288 0.899,4.785c0.302,1.492 0.302,2.688 0.302,3.885c0.301,1.496 0.301,2.393 0.301,2.693c0.599,-0.301 1.201,-0.301 2.101,-0.601c0.599,-0.296 1.201,-0.296 2.101,-0.296c0.603,0 0.899,0 0.899,0.296c0.301,0.3 0.301,0.601 0.301,0.9c0,0.296 -0.301,0.596 -0.598,0.896c-0.302,0.296 -0.904,0.596 -1.502,0.896c-0.603,0.301 -1.201,0.301 -1.8,0.597c-0.603,0.3 -0.903,0.3 -1.2,0.3c0,1.196 0.297,2.989 0.598,4.785c0.302,2.093 0.603,4.186 0.9,6.278c0.301,2.092 0.602,3.885 1.2,5.981c0.603,1.792 0.899,3.289 1.502,4.186l0,0c0.599,0.296 1.201,0.596 1.498,0.896c0.603,0.301 0.904,0.896 0.904,1.497c0,0 -0.302,0.296 -0.603,0.596c0,0.3 -0.302,0.601 -0.9,0.601c-0.899,0 -1.502,-0.601 -2.401,-1.497c-0.599,-0.896 -1.498,-2.092 -2.101,-3.589c-0.598,-1.792 -0.899,-3.289 -1.502,-5.081c-0.297,-2.093 -0.598,-3.89 -0.899,-5.682c-0.297,-1.793 -0.599,-3.289 -0.599,-4.785c-0.301,-1.493 -0.301,-2.689 -0.301,-3.289c-1.201,0.6 -2.401,1.196 -3.603,1.496c-1.201,0.597 -2.397,1.196 -3.599,1.496c0,0.597 0,1.793 0,3.289c0.297,1.493 0.297,3.289 0.297,5.082c0,1.196 0,2.092 -0.297,2.988c0,1.196 0,1.797 -0.301,2.693c0,0.896 -0.302,1.492 -0.302,1.792c-0.301,0.601 -0.599,0.896 -0.899,0.896c-0.899,0 -1.201,-0.597 -1.502,-1.196c0,-0.896 -0.297,-1.492 -0.297,-2.093c0,-2.093 0.297,-3.885 0.297,-5.978s0.301,-4.186 0.301,-6.282c-0.598,0.301 -1.2,0.301 -1.799,0.601c-0.603,0.3 -1.502,0.3 -2.101,0.596c-0.903,0.301 -1.502,0.301 -2.401,0.601c-0.6,0.002 -1.199,0.302 -1.5,0.302zm14.105,-27.508c-0.599,0 -0.899,0.597 -1.498,2.389c-0.301,1.497 -0.603,3.59 -0.899,5.682c-0.302,2.393 -0.603,4.786 -0.904,7.179c0,2.393 -0.297,4.485 -0.297,6.277c1.201,-0.596 2.397,-0.896 3.599,-1.496c0.899,-0.597 2.101,-1.196 3.301,-1.492l-0.598,-5.682c0,-0.601 0,-1.497 0,-2.989c-0.302,-1.196 -0.603,-2.692 -0.603,-4.189c-0.298,-1.492 -0.599,-2.988 -0.899,-3.885c-0.303,-1.197 -0.901,-1.794 -1.202,-1.794z"/>
  <path id="svg_33" fill="#A5A8A9" d="m255.101,341.264887l5.703,0c0.598,0 1.2,0.301 1.2,1.196l0,5.978c0,0.896 -0.603,1.196 -1.2,1.196l-5.703,0c-0.9,0 -1.201,-0.3 -1.201,-1.196l0,-5.978c-0.001,-0.895 0.301,-1.196 1.201,-1.196z"/>
  <path id="svg_34" fill="#A5A8A9" d="m255.101,351.131887l5.703,0c0.598,0 1.2,0.596 1.2,1.196l0,6.277c0,0.601 -0.603,1.196 -1.2,1.196l-5.703,0c-0.9,0 -1.201,-0.596 -1.201,-1.196l0,-6.277c-0.001,-0.6 0.301,-1.196 1.201,-1.196z"/>
  <path id="svg_35" fill="#A5A8A9" d="m255.101,360.997887l5.703,0c0.598,0 1.2,0.597 1.2,1.196l0,6.278c0,0.596 -0.603,1.196 -1.2,1.196l-5.703,0c-0.9,0 -1.201,-0.601 -1.201,-1.196l0,-6.278c-0.001,-0.599 0.301,-1.196 1.201,-1.196z"/>
  <path id="svg_36" fill="#A5A8A9" d="m255.101,370.865887l5.703,0c0.598,0 1.2,0.596 1.2,1.196l0,6.277c0,0.601 -0.603,1.196 -1.2,1.196l-5.703,0c-0.9,0 -1.201,-0.596 -1.201,-1.196l0,-6.277c-0.001,-0.601 0.301,-1.196 1.201,-1.196z"/>
  <path id="svg_37" fill="#A5A8A9" d="m255.101,381.032887l5.703,0c0.598,0 1.2,0.296 1.2,0.896l0,6.277c0,0.6 -0.603,1.196 -1.2,1.196l-5.703,0c-0.9,0 -1.201,-0.597 -1.201,-1.196l0,-6.277c-0.001,-0.6 0.301,-0.896 1.201,-0.896z"/>
  <path id="svg_38" fill="#A5A8A9" d="m255.101,390.898887l5.703,0c0.598,0 1.2,0.597 1.2,1.196l0,5.978c0,0.896 -0.603,1.196 -1.2,1.196l-5.703,0c-0.9,0 -1.201,-0.3 -1.201,-1.196l0,-5.978c-0.001,-0.599 0.301,-1.196 1.201,-1.196z"/>
  <path id="svg_39" fill="#A5A8A9" d="m255.101,400.765887l5.703,0c0.598,0 1.2,0.596 1.2,1.196l0,6.277c0,0.597 -0.603,1.196 -1.2,1.196l-5.703,0c-0.9,0 -1.201,-0.6 -1.201,-1.196l0,-6.277c-0.001,-0.6 0.301,-1.196 1.201,-1.196z"/>
  <path id="svg_40" fill="#A5A8A9" d="m255.101,410.631887l5.703,0c0.598,0 1.2,0.597 1.2,1.196l0,6.278c0,0.596 -0.603,1.196 -1.2,1.196l-5.703,0c-0.9,0 -1.201,-0.601 -1.201,-1.196l0,-6.278c-0.001,-0.599 0.301,-1.196 1.201,-1.196z"/>
  <path id="svg_41" fill="#A5A8A9" d="m266.502,341.264887l6.004,0c0.599,0 1.201,0.301 1.201,1.196l0,5.978c0,0.896 -0.603,1.196 -1.201,1.196l-6.004,0c-0.599,0 -1.196,-0.3 -1.196,-1.196l0,-5.978c0,-0.895 0.597,-1.196 1.196,-1.196z"/>
  <path id="svg_42" fill="#A5A8A9" d="m266.502,351.131887l6.004,0c0.599,0 1.201,0.596 1.201,1.196l0,6.277c0,0.601 -0.603,1.196 -1.201,1.196l-6.004,0c-0.599,0 -1.196,-0.596 -1.196,-1.196l0,-6.277c0,-0.6 0.597,-1.196 1.196,-1.196z"/>
  <path id="svg_43" fill="#A5A8A9" d="m266.502,360.997887l6.004,0c0.599,0 1.201,0.597 1.201,1.196l0,6.278c0,0.596 -0.603,1.196 -1.201,1.196l-6.004,0c-0.599,0 -1.196,-0.601 -1.196,-1.196l0,-6.278c0,-0.599 0.597,-1.196 1.196,-1.196z"/>
  <path id="svg_44" fill="#A5A8A9" d="m266.502,370.865887l6.004,0c0.599,0 1.201,0.596 1.201,1.196l0,6.277c0,0.601 -0.603,1.196 -1.201,1.196l-6.004,0c-0.599,0 -1.196,-0.596 -1.196,-1.196l0,-6.277c0,-0.601 0.597,-1.196 1.196,-1.196z"/>
  <path id="svg_45" fill="#A5A8A9" d="m266.502,381.032887l6.004,0c0.599,0 1.201,0.296 1.201,0.896l0,6.277c0,0.6 -0.603,1.196 -1.201,1.196l-6.004,0c-0.599,0 -1.196,-0.597 -1.196,-1.196l0,-6.277c0,-0.6 0.597,-0.896 1.196,-0.896z"/>
  <path id="svg_46" fill="#A5A8A9" d="m266.502,390.898887l6.004,0c0.599,0 1.201,0.597 1.201,1.196l0,5.978c0,0.896 -0.603,1.196 -1.201,1.196l-6.004,0c-0.599,0 -1.196,-0.3 -1.196,-1.196l0,-5.978c0,-0.599 0.597,-1.196 1.196,-1.196z"/>
  <path id="svg_47" fill="#A5A8A9" d="m266.502,400.765887l6.004,0c0.599,0 1.201,0.596 1.201,1.196l0,6.277c0,0.597 -0.603,1.196 -1.201,1.196l-6.004,0c-0.599,0 -1.196,-0.6 -1.196,-1.196l0,-6.277c0,-0.6 0.597,-1.196 1.196,-1.196z"/>
  <path id="svg_48" fill="#A5A8A9" d="m266.502,410.631887l6.004,0c0.599,0 1.201,0.597 1.201,1.196l0,6.278c0,0.596 -0.603,1.196 -1.201,1.196l-6.004,0c-0.599,0 -1.196,-0.601 -1.196,-1.196l0,-6.278c0,-0.599 0.597,-1.196 1.196,-1.196z"/>
  <path id="svg_49" fill="#A5A8A9" d="m259.301,420.794887l5.703,0c0.599,0 1.201,0.601 1.201,1.196l0,6.282c0,0.596 -0.603,1.196 -1.201,1.196l-5.703,0c-0.598,0 -1.2,-0.601 -1.2,-1.196l0,-6.282c0,-0.595 0.602,-1.196 1.2,-1.196z"/>
  <path id="svg_50" fill="#A5A8A9" d="m263.201,424.383887l6.004,0c0.599,0 1.201,0.601 1.201,1.196l0,6.278c0,0.6 -0.603,1.196 -1.201,1.196l-6.004,0c-0.599,0 -1.197,-0.597 -1.197,-1.196l0,-6.278c0,-0.595 0.599,-1.196 1.197,-1.196z"/>
  <path id="svg_51" fill="#657280" d="m228.092,378.939887c4.201,0 7.799,3.289 7.799,7.771c0,4.188 -3.598,7.773 -7.799,7.773c-4.205,0 -7.807,-3.585 -7.807,-7.773c0,-4.482 3.602,-7.771 7.807,-7.771z"/>
  <path id="svg_52" fill="#5E6976" d="m228.092,382.228887c2.398,0 4.201,2.093 4.201,4.481c0,2.393 -1.803,4.188 -4.201,4.188c-2.401,0 -4.502,-1.796 -4.502,-4.188c0,-2.388 2.1,-4.481 4.502,-4.481z"/>
  <rect id="svg_53" y="230.633887" x="394.954" width="13.945" height="20.054" fill="#33CC99"/>
  <path id="svg_54" fill="#B88A2E" d="m102.64,291.330887l105.343,-29.301c6.301,-1.792 12.904,1.793 14.703,8.371l44.118,159.664c1.502,6.278 -2.101,13.156 -8.402,14.948l-105.339,29.601c-6.305,1.796 -13.209,-2.093 -15.008,-8.37l-43.82,-159.961c-1.8,-6.282 2.1,-13.155 8.405,-14.952z"/>
  <path id="svg_55" fill="#CC9933" d="m102.64,291.330887l105.343,-29.301c1.498,-0.6 3,-0.6 4.502,-0.6c2.996,1.496 5.699,4.189 6.603,7.774l44.113,159.964c1.502,6.278 -2.101,13.156 -8.402,14.948l-105.343,29.601c-1.498,0.3 -2.996,0.3 -4.502,0.3c-3.297,-1.496 -5.699,-4.185 -6.9,-7.773l-43.82,-159.961c-1.799,-6.282 2.101,-13.155 8.406,-14.952z"/>
  <path id="svg_56" fill="#B88A2E" d="m135.954,282.064887l38.715,-10.768c0.301,1.797 1.498,11.363 -0.301,11.964l-32.113,8.967c-1.803,0.6 -5.703,-8.371 -6.301,-10.163z"/>
  <polygon id="svg_57" points="101.13800048828125,303.8908805847168 209.17999267578125,266.8168754577637 264.10400390625,430.0658988952637 156.0590057373047,467.1398735046387 " fill="#CFCFCF"/>
  <polygon id="svg_58" points="110.44300079345703,294.31989669799805 222.38499450683594,271.5978813171387 256,440.5328788757324 144.0590057373047,463.2548942565918 " fill="#E6E6E6"/>
  <polygon id="svg_59" points="169.56500244140625,442.9208793640137 173.76600646972656,445.6148796081543 165.36399841308594,455.4808769226074 " fill="#CFCFCF"/>
  <path id="svg_60" fill="#CFCFCF" d="m169.565,442.920887l4.201,2.693l-0.896,0.896c-0.301,0.301 -0.904,0.601 -1.205,0.601c-0.599,0.296 -0.301,-1.496 -0.599,-2.097c-0.301,-0.296 -1.502,1.196 -1.803,1.196c-0.297,0 -0.297,-1.196 -0.297,-2.393l0.599,-0.896z"/>
  <polygon id="svg_61" points="167.16299438476562,453.0879020690918 165.36399841308594,455.4808769226074 166.26800537109375,452.4929008483887 " fill="#CFCFCF"/>
  <path id="svg_62" fill="#CFCFCF" d="m169.565,442.920887l50.418,-90.297c2.703,-4.481 6.904,-2.093 4.502,2.692l-50.72,90.298c-0.896,0 -1.799,1.196 -2.1,0.896c-0.301,0 0.301,-1.792 -0.301,-2.092c-0.297,-0.301 -1.799,1.496 -1.799,0.896c0,-0.3 0,-1.496 0,-2.393z"/>
  <path id="svg_63" fill="#CFCFCF" d="m171.666,445.913887c0,-0.601 0,-1.196 -0.301,-1.496c-0.297,0 -0.896,0.3 -1.197,0.596l48.017,-85.512l1.502,0.896l-48.021,85.516z"/>
  <path id="svg_64" fill="#CFCFCF" d="m169.565,442.920887l47.121,-84.315l1.498,0.896l-48.017,85.512c-0.301,0.3 -0.603,0.601 -0.603,0.3c0.001,-0.3 0.001,-1.496 0.001,-2.393z"/>
  <polygon id="svg_65" points="216.68600463867188,358.6058769226074 218.1840057373047,356.2129020690918 222.38499450683594,358.6058769226074 221.18800354003906,361.29890060424805 " fill="#CFCFCF"/>
  <path id="svg_66" fill="#CFCFCF" d="m218.184,356.212887l1.799,-3.589c2.703,-4.481 6.904,-2.093 4.502,2.692l-2.101,3.289l-4.2,-2.392z"/>
  <path id="svg_67" fill="#B8B8B8" d="m136.854,273.093887l6.603,-1.797c-0.301,0 -0.301,-0.296 -0.301,-0.596l-0.899,-3.289c-0.599,-1.792 0.598,-3.589 2.401,-4.185l12.904,-3.59c0.301,0 0.301,0 0.301,0c0.9,0.301 1.502,1.196 1.803,2.093l0.896,3.289c0,0.3 0.301,1.196 0.301,1.496c2.703,-0.896 5.406,-1.496 8.402,-2.393l0,0c0.904,0.301 1.803,1.196 2.101,2.093l0.903,3.289c0.301,1.792 1.498,11.959 -0.301,12.26l-31.213,8.97c-1.799,-2.092 -4.799,-8.374 -5.101,-10.166l-0.9,-3.289c-0.603,-1.792 0.3,-3.588 2.1,-4.185z"/>
  <path id="svg_68" fill="#CCCCCC" d="m142.557,271.597887l0.899,-0.301c-0.301,0 -0.301,-0.296 -0.301,-0.596l-0.899,-3.289c-0.599,-1.496 0.301,-2.988 1.502,-3.885l0,0l13.205,-3.589l0.301,0c0.896,0.3 1.498,1.196 1.799,2.092l0.9,3.289c0,0.301 0.301,1.196 0.301,1.497c2.699,-0.9 5.401,-1.497 8.401,-2.393l0,0c0.9,0.296 1.804,1.196 1.804,2.092l0.896,3.289c0.602,1.793 1.803,10.764 0.301,12.26l-30.912,8.67c-1.799,-2.092 -4.799,-8.374 -5.101,-10.166l-0.9,-3.289c-0.602,-1.497 0.301,-2.989 1.498,-3.886l0,0l6.306,-1.795l0,0z"/>
  <path id="svg_69" fill="#A9ABAE" d="m142.255,390.598887c-0.599,0.3 -1.502,0.3 -1.803,-0.3c-0.599,-0.301 -1.197,-0.896 -1.498,-1.493c0,-0.6 0.603,-1.196 1.799,-2.393c1.205,-0.896 2.703,-1.796 4.201,-2.692c1.803,-1.196 3.305,-2.093 5.104,-2.989c1.498,-0.896 2.703,-1.496 3.301,-1.792c-0.297,-1.196 -0.899,-2.993 -1.502,-5.682c-0.599,-2.692 -1.197,-5.682 -1.799,-8.971s-1.201,-6.878 -1.498,-10.467c-0.603,-3.585 -0.904,-6.874 -0.904,-9.866c0,-3.289 0.301,-5.678 0.904,-8.07c0.599,-2.093 1.799,-3.289 3.297,-3.89c1.205,-0.3 2.703,0 3.904,1.196c1.502,1.196 3,2.693 4.201,4.785c1.502,2.093 2.699,4.485 4.201,7.175c1.201,2.692 2.402,5.085 3.301,7.773c1.201,2.393 2.101,4.786 2.703,6.878c0.598,2.093 1.197,3.589 1.498,4.485c1.205,-0.896 2.1,-1.796 3.305,-2.393c0.896,-0.596 2.101,-1.196 3.297,-1.496c0.903,-0.296 1.502,-0.296 1.803,0c0.598,0.3 0.899,0.9 0.899,1.496c0.301,0.597 0,1.196 -0.603,2.093c-0.598,0.6 -1.197,1.196 -2.1,1.797c-0.9,0.896 -1.799,1.492 -2.699,2.092c-0.899,0.297 -1.502,0.896 -1.803,1.192c0.603,1.797 1.803,4.485 3.004,7.774c1.498,3.289 3,6.578 4.502,10.167c1.498,3.289 3.297,6.578 4.803,9.57c1.799,2.989 3.297,5.082 4.799,6.278l0,0c0.899,0.3 1.803,0.596 2.699,0.896c1.205,0.301 1.803,0.896 2.101,2.093c0,0.301 0,0.896 -0.297,1.497c-0.301,0.896 -0.899,1.196 -1.201,1.196c-1.799,0.596 -3.301,0.296 -5.104,-1.196c-1.799,-1.196 -3.297,-2.993 -5.097,-5.382c-1.803,-2.393 -3.305,-5.086 -4.803,-8.074c-1.502,-2.693 -3.004,-5.682 -4.201,-8.671c-1.502,-2.988 -2.703,-5.682 -3.606,-8.074c-0.896,-2.393 -1.498,-4.185 -2.101,-5.381c-1.498,1.496 -3.297,2.988 -5.101,4.485c-1.799,1.196 -3.603,2.692 -5.401,4.185c0.301,0.896 0.903,2.693 1.799,5.382c0.904,2.692 1.803,5.682 2.402,8.67c0.603,1.797 0.904,3.589 1.502,5.086c0.297,1.792 0.599,3.289 0.599,4.781c0,1.196 0,2.393 0,3.289c-0.301,0.9 -0.599,1.496 -1.197,1.496c-1.205,0.601 -2.402,0 -2.703,-1.196c-0.603,-1.196 -1.201,-2.093 -1.498,-2.989c-0.903,-3.589 -1.803,-7.178 -2.401,-10.763c-0.904,-3.289 -1.803,-6.878 -2.703,-10.467c-0.603,0.601 -1.498,0.896 -2.703,1.797c-0.9,0.596 -2.101,1.192 -3.297,2.092c-1.205,0.597 -2.401,1.196 -3.606,1.793c-0.895,0.597 -1.799,0.898 -2.699,1.198zm11.105,-53.518c-0.599,0.296 -1.201,1.792 -1.201,4.781c0,2.992 0.301,6.577 0.903,10.467c0.599,4.185 1.197,8.07 2.101,12.556c0.896,4.185 1.498,7.773 2.397,10.767c1.803,-1.496 3.603,-2.692 5.101,-4.189c1.803,-1.492 3.305,-2.988 5.104,-4.185l-3.603,-9.566c-0.297,-0.896 -0.899,-2.394 -1.799,-4.786c-0.899,-2.093 -1.803,-4.485 -3,-6.878c-0.903,-2.389 -2.1,-4.48 -3.305,-6.577c-0.895,-1.795 -1.799,-2.39 -2.698,-2.39zm24.309,-3.589c-0.301,-1.797 0,-2.693 1.502,-2.989c1.197,-0.3 2.101,0.296 3.297,2.093c0.904,1.792 1.803,4.185 2.703,6.577c0.904,2.394 1.799,4.782 2.402,7.175s0.899,3.889 1.201,4.484c0,-1.496 -0.301,-3.589 -0.301,-5.978c0,-2.393 0.301,-4.785 0.9,-7.178c0.603,-2.393 1.205,-4.485 2.401,-6.277c1.201,-1.797 2.703,-2.989 4.803,-3.589c2.402,-0.597 4.201,-0.301 5.699,1.496c1.205,1.492 2.104,3.289 2.703,5.382c0.603,2.988 1.201,5.978 1.502,8.97c0.297,2.989 0.297,6.278 0.297,9.267c2.402,-0.596 4.803,-1.196 7.808,-1.492c2.699,0 5.1,0 7.799,0.597c2.402,0.596 4.502,1.496 6.603,2.988c1.804,1.797 3.306,3.89 4.201,6.878c0.603,2.393 0.603,5.081 -0.297,8.074c-0.899,2.989 -2.1,5.682 -3.904,8.37c-1.799,2.393 -3.899,4.786 -6.301,6.878c-2.401,1.793 -4.803,2.989 -7.205,3.886c-0.599,0 -1.498,0.3 -2.699,0.3c-1.201,0 -2.397,0 -3.602,-0.3c-0.9,0 -2.101,-0.297 -3,-0.896c-0.899,-0.597 -1.502,-1.196 -1.799,-2.093c-0.301,-1.496 0,-2.692 1.799,-2.988l1.502,0c2.401,1.196 4.803,1.492 7.502,0.896c1.803,-0.6 3.603,-1.496 5.402,-2.988c2.1,-1.497 3.603,-3.289 4.803,-5.382c1.197,-1.797 2.101,-3.889 2.703,-5.981c0.599,-2.393 0.599,-4.485 0,-6.278c-0.602,-2.092 -1.506,-3.589 -3.004,-4.484c-1.799,-1.196 -3.301,-1.797 -5.402,-2.093c-1.803,-0.301 -3.904,-0.301 -6.004,-0.301c-2.101,0.301 -3.9,0.597 -5.402,0.896l-1.502,0.601c0,0.596 -0.297,1.492 -0.297,2.688c-0.301,0.896 -0.301,2.093 -0.598,3.289c-0.301,0.896 -0.904,2.093 -1.205,2.988c-0.598,0.9 -1.197,1.197 -1.799,1.497c-1.201,0.3 -2.101,0 -3,-0.896c-0.899,-0.896 -1.502,-1.792 -1.502,-2.692c-0.598,-1.793 -0.301,-3.585 0.301,-5.082c0.9,-1.792 2.101,-3.289 3.301,-4.185c0.297,-3.89 0.297,-7.774 0,-11.663c-0.598,-3.886 -1.803,-7.475 -3.603,-11.063c-1.799,0.601 -3,1.797 -3.598,4.189c-0.904,2.092 -1.205,4.485 -1.502,7.474c0,2.989 0.297,5.978 0.598,9.267s0.904,6.578 1.201,9.867c0.599,2.992 1.201,5.682 1.803,8.374c0.599,2.393 1.197,4.485 1.498,5.682c0,0.596 0.603,1.792 0.904,2.988c0.598,1.197 1.197,2.689 1.498,4.186s0.603,3.289 0.603,4.785c0,1.492 -0.603,2.393 -2.101,2.689c-0.301,0 -0.904,0 -1.205,-0.297c-0.598,-0.3 -0.896,-0.6 -0.896,-1.196c-3.606,-9.57 -6.904,-19.137 -9.908,-28.704c-3,-9.574 -6,-19.14 -9.603,-28.706z"/>
  <path id="svg_70" fill="#8A0000" d="m192.975,404.350887c0.598,0.3 0.899,0.6 1.201,1.196l-1.799,3.589c-0.603,0 -1.201,0 -2.101,0l2.699,-4.785zm10.205,-17.937l1.498,-2.992l1.803,0c0,0 0,0 0.297,0l-2.699,4.485c-0.598,-0.297 -0.899,-0.897 -0.899,-1.493z"/>
  <path id="svg_71" fill="#B82E00" d="m193.276,403.753887l0.297,0c0.603,0.301 0.904,0.301 1.205,0.597l-2.402,4.485c-0.603,0 -1.201,-0.296 -1.502,-0.597l2.402,-4.485zm6.602,-11.659l1.502,-2.692l0,0.3c0.001,1.196 -0.602,2.092 -1.502,2.392zm6.9,-8.97l-2.101,3.885c0,-0.3 -0.297,-0.597 -0.297,-0.896c-0.301,-1.496 0,-2.692 1.799,-2.988l0.599,0l0,-0.001z"/>
  <path id="svg_72" fill="#8A0000" d="m191.473,403.753887c0.301,0 0.603,0.301 0.904,0.301s0.301,0.296 0.599,0.296l-2.699,4.785c-0.301,-0.3 -0.903,-0.596 -1.502,-0.896l2.698,-4.486zm6.004,-11.062l2.401,-4.186c0,0.3 0,0.896 0,1.492c0,1.196 -0.598,2.394 -1.803,2.693c-0.297,0.001 -0.297,0.001 -0.598,0.001zm7.201,-9.271l-1.498,2.992l-0.301,0c-0.301,-1.795 0.301,-2.692 1.799,-2.992l0,0z"/>
  <path id="svg_73" fill="#B82E00" d="m191.774,403.158887c0.603,0.296 0.904,0.296 1.502,0.596l-2.402,4.485c-0.599,0 -1.201,-0.3 -1.502,-0.6l2.402,-4.481zm6.004,-11.064l3.301,-5.682c0.301,0.896 0.301,2.093 0.301,2.989l-1.502,2.692c-0.301,0 -0.301,0.297 -0.598,0.297c-0.301,0 -0.904,0 -1.205,-0.297l-0.297,0l0,0.001z"/>
  <path id="svg_74" fill="#8A0000" d="m217.586,357.109887l0.598,-0.896l2.703,1.497c-0.904,-0.301 -1.799,-0.601 -2.402,-0.601c-0.301,0 -0.602,0 -0.899,0z"/>
  <path id="svg_75" fill="#B82E00" d="m217.883,356.512887l0.301,-0.3l0.904,0.601c-0.603,0 -0.904,-0.301 -1.205,-0.301z"/>
  <polygon id="svg_76" points="168.06700134277344,442.0258903503418 172.26800537109375,444.7178764343262 163.86599731445312,454.5848808288574 " fill="#FFCC99"/>
  <path id="svg_77" fill="#FFCC99" d="m168.067,442.025887l4.201,2.692l-0.602,0.896c-0.599,0.3 -1.197,0.596 -1.498,0.596c-0.603,0.3 -0.301,-1.792 -0.301,-2.093c-0.301,-0.3 -1.799,1.196 -2.101,1.196s-0.301,-1.496 0,-2.393l0.301,-0.894z"/>
  <polygon id="svg_78" points="165.96600341796875,452.1918754577637 163.86599731445312,454.5848808288574 164.76199340820312,451.5918998718262 " fill="#4D4D4D"/>
  <path id="svg_79" fill="#E6B800" d="m168.067,442.025887l50.418,-90.298c2.703,-4.485 7.205,-2.093 4.502,2.693l-50.72,90.297c-0.903,0 -1.799,1.196 -2.1,0.896c0,0 0.301,-1.797 0,-2.093c-0.603,-0.3 -2.101,1.492 -2.101,0.896c0.001,-0.599 0.001,-1.496 0.001,-2.391z"/>
  <path id="svg_80" fill="#FFCC00" d="m170.167,445.013887c0,-0.596 0,-1.196 0,-1.492c-0.301,-0.3 -0.904,0.296 -1.502,0.596l48.021,-85.512l1.498,0.896l-48.017,85.512z"/>
  <path id="svg_81" fill="#E6B800" d="m168.067,442.025887l47.117,-84.315l1.502,0.896l-48.021,85.512c-0.297,0.301 -0.598,0.601 -0.598,0.301c0,-0.602 0,-1.499 0,-2.394z"/>
  <polygon id="svg_82" points="215.1840057373047,357.7098808288574 216.68600463867188,355.3168754577637 221.18800354003906,357.7098808288574 219.68600463867188,360.39887619018555 " fill="#CFA600"/>
  <path id="svg_83" fill="#CC3300" d="m216.686,355.316887l1.799,-3.589c2.703,-4.781 7.205,-2.093 4.502,2.693l-1.799,3.289l-4.502,-2.393z"/>
  <path id="svg_84" fill="#959595" d="m150.36,263.527887c1.197,-0.3 2.101,0.596 2.401,1.492c0.599,1.196 -0.301,2.393 -1.205,2.692c-1.197,0.297 -2.397,-0.3 -2.699,-1.496c-0.296,-1.196 0.302,-2.392 1.503,-2.688z"/>
  <path id="svg_85" fill="#A6A6A6" d="m151.557,263.823887c0.603,0 1.205,0.601 1.205,1.196c0.599,1.196 -0.301,2.393 -1.205,2.692c-0.297,0 -0.599,0 -0.896,0c-0.603,-0.3 -0.904,-0.6 -1.205,-1.196c-0.297,-1.196 0.301,-2.393 1.502,-2.692c0.301,0 0.599,0 0.599,0z"/>
  <path id="svg_86" fill="none" d="m172.268,269.504887c0,0.601 0,1.196 0.301,2.393l2.101,-0.601l33.314,-9.267c1.498,-0.6 3,-0.6 4.502,-0.6c4.799,0.6 9.004,3.889 10.201,8.971l44.118,159.664c1.502,6.278 -2.101,13.156 -8.402,14.948l-105.339,29.601c-2.703,0.6 -5.707,0.3 -8.108,-0.597c-3.297,-1.496 -5.699,-4.185 -6.9,-7.773l-43.82,-159.961c-1.799,-6.282 2.101,-13.155 8.406,-14.952l33.314,-9.267l0,0c-0.301,-0.601 -0.301,-1.196 -0.301,-1.496l-0.9,-3.289c-0.602,-1.497 0.301,-2.989 1.498,-3.886c0.301,0 0.603,0 0.603,-0.3l5.703,-1.496l0.899,-0.301c-0.301,0 -0.301,-0.296 -0.301,-0.596l-0.899,-3.289c-0.599,-1.496 0.301,-2.988 1.502,-3.885c0.301,0 0.598,-0.3 0.899,-0.3l12.904,-3.59l0.301,0c0.9,0.301 1.502,1.196 1.803,2.093l0.896,3.289c0,0.3 0.301,1.196 0.301,1.496l8.402,-2.393l0,0c0.904,0.301 1.803,1.196 2.101,2.093l0.901,3.291z"/>
  <path id="svg_87" fill="#4E5A62" d="m434.268,33.597887l-356.536,0c-7.807,0 -14.108,6.28 -14.108,14.054l0,231.125c0,7.774 6.301,14.052 14.108,14.052l11.105,0c-2.703,4.485 -3.603,10.167 -2.101,15.549l43.816,159.96c1.799,5.682 5.699,10.468 11.104,12.856c4.201,1.796 9.004,2.096 13.506,0.899l87.933,-24.818l138.055,0c12.302,0 22.507,-10.163 22.507,-22.723l0,-90.297c0,-8.074 -4.502,-15.549 -11.406,-19.434c-4.201,-3.889 -9.603,-5.682 -15.004,-5.682l-21.31,0c-11.402,-13.756 -39.013,-20.334 -57.322,-23.322l0,-2.989l135.652,0c7.804,0 14.109,-6.277 14.109,-14.052l0,-231.125c0.001,-7.774 -6.305,-14.053 -14.108,-14.053zm6.305,245.178c0,3.289 -3.004,6.277 -6.306,6.277l-143.455,0l0,17.642c31.515,3.885 54.925,13.155 60.925,24.219l25.511,0c3.903,0 7.803,1.496 10.506,4.185c4.8,2.394 8.101,7.475 8.101,13.156l0,90.297c0,8.37 -6.603,14.948 -14.703,14.948l-138.96,0l-89.13,25.115c-2.703,0.6 -5.707,0.3 -8.108,-0.597c-3.297,-1.496 -5.699,-4.185 -6.9,-7.773l-43.82,-159.961c-1.799,-6.282 2.101,-13.155 8.406,-14.952l22.808,-6.278l-47.716,0c-3.305,0 -6.301,-2.988 -6.301,-6.277l0,-231.126c0,-3.589 2.996,-6.28 6.301,-6.28l356.536,0c3.302,0 6.306,2.691 6.306,6.28l0,231.125l-0.001,0z"/>
 </g>
</svg>