<svg version="1" xmlns="http://www.w3.org/2000/svg" width="933.333" height="933.333" viewBox="0 0 700.000000 700.000000"><path d="M0 350v350h14.8l32.8-32.8 32.9-32.9-.1-283.4C80.3 195 80.2 67 80.1 66.4c0-.7-14.8-15.9-32.7-33.8L14.8 0H0v350zM598.5 59.7c-55.5 32.7-108.9 64-118.5 69.7-9.6 5.7-19.1 11.3-21 12.4-1.9 1.1-22.4 13.1-45.5 26.7-47.1 27.8-117.8 69.4-130 76.5-4.4 2.6-19.5 11.4-33.5 19.7-14 8.2-43.5 25.6-65.5 38.5-22 12.9-48.7 28.6-59.3 34.9-10.5 6.2-19.2 11.6-19.2 12.1 0 .4 2.1 1.9 4.8 3.3 2.6 1.4 5.4 3 6.2 3.5.8.6 9.6 5.7 19.5 11.5s18.7 10.9 19.5 11.4c1.9 1.2 36.9 21.9 41.9 24.7 2 1.2 16.3 9.6 31.8 18.8 15.6 9.1 30 17.6 32.1 18.9 6.8 3.9 28.6 16.8 30.2 17.8 2.2 1.3 26.9 15.9 31 18.2 1.9 1.1 4.7 2.7 6.2 3.6 3.4 2 30.1 17.7 50.3 29.6 8.3 4.8 16.4 9.6 18 10.5 1.7 1 10.4 6.1 19.5 11.5 16.8 10 48.1 28.4 53.5 31.5 1.7.9 9.3 5.4 17 10 7.7 4.6 24.4 14.4 37 21.8 12.7 7.4 53.6 31.5 91 53.5s71.7 42.1 76.3 44.8l8.2 4.9v-70l-3.7-2.3c-2.1-1.3-5.7-3.5-8-4.8-5.7-3.3-16-9.5-20.8-12.4-2.2-1.4-5.6-3.4-7.5-4.5-5.4-3.2-9.7-5.7-20.2-12.2l-9.8-6V385H280v-70h350l.2-101.7.3-101.6 9.5-5.8c5.2-3.2 10.2-6.2 11-6.6 1.3-.6 29.9-17.6 34-20.3.8-.5 4.3-2.6 7.8-4.5 3.5-2 6.5-4.2 6.8-4.8.2-.7.3-16.6.2-35.3L699.5.3l-101 59.4z"/><path d="M689.9 140.2c-.1.2-.2 94.7-.3 210l-.1 209.8H700V140h-5c-2.7 0-5.1.1-5.1.2z"/></svg>