<svg width="100" height="100" xmlns="http://www.w3.org/2000/svg">
  <path d="M0 10 Q 0 0 10 0 H 90 Q 100 0 100 10 V 90 Q 100 100 90 100 H 10 Q 0 100 0 90" fill="#24292e"/>
  <circle cx="15" cy="15" r="7" fill="white"/>
  <circle cx="15" cy="30" r="3" fill="white"/>
  <circle cx="30" cy="15" r="3" fill="white"/>
  <circle cx="25" cy="25" r="3" fill="white"/>
  <circle cx="15" cy="50" r="7" fill="white"/>
  <circle cx="15" cy="85" r="7" fill="white"/>
  <circle cx="85" cy="15" r="7" fill="white"/>
  <circle cx="85" cy="50" r="7" fill="white"/>
  <circle cx="85" cy="85" r="7" fill="white"/>
  <circle cx="15" cy="50" r="6" fill="#24292e"/>
  <circle cx="15" cy="85" r="6" fill="#24292e"/>
  <circle cx="85" cy="15" r="6" fill="#24292e"/>
  <circle cx="85" cy="50" r="6" fill="#24292e"/>
  <circle cx="85" cy="85" r="6" fill="#24292e"/>
  <path d="M60 70 70 70 70 60" stroke="white" fill="transparent"/>
  <path d="M30 30 70 70" stroke="white"/>
</svg>
